<?xml version="1.0" standalone="no"?><!DOCTYPE svg PUBLIC "-//W3C//DTD SVG 1.1//EN" "http://www.w3.org/Graphics/SVG/1.1/DTD/svg11.dtd" ><svg xmlns="http://www.w3.org/2000/svg"><metadata>Generated by Glyphter</metadata><defs><font id="IVP-icons-0515" horiz-adv-x="0"><font-face units-per-em="1024" ascent="1024" descent="0" font-family="IVP-icons-0515" font-weight="normal" /><missing-glyph horiz-adv-x="0" /><glyph unicode="&#x0045;" d="M813.389,723.167C767.344,723.167,726.633,744.322,699.078,776.856C699.078,776.856,350.456,568.856,350.456,568.856C357.567,551.433,361.656,532.233,361.656,512.322C361.656,492.411,357.567,473.211,350.456,455.789C350.456,455.789,699.078,247.967,699.078,247.967C726.633,280.5,767.344,301.656,813.389,301.656C896.589,301.656,963.967,234.278,963.967,151.078C963.967,67.878,896.589,0.5,813.389,0.5C730.189,0.5,662.811,67.878,662.811,151.078C662.811,166.544,665.833,180.944,670.1,194.989C670.1,194.989,317.033,405.3,317.033,405.3C289.833,378.456,252.5,361.744,211.078,361.744C127.878,361.744,60.5,429.122,60.5,512.322C60.5,595.522,127.878,662.9,211.078,662.9C252.322,662.9,289.833,646.189,317.033,619.344C317.033,619.344,670.1,830.011,670.1,830.011C665.833,844.056,662.811,858.456,662.811,873.922C662.811,957.122,730.189,1024.5,813.389,1024.5C896.589,1024.5,963.967,957.122,963.967,873.922C963.967,790.722,896.589,723.167,813.389,723.167C813.389,723.167,813.389,723.167,813.389,723.167" class="icon-icn-share"/><glyph unicode="&#x0046;" d="M967.799,1024C967.799,1024,57.024,1024,57.024,1024C25.74,1024,0.5,998.76,0.5,967.476C0.5,967.476,0.5,56.524,0.5,56.524C0.5,25.24,25.74,0,57.024,0C57.024,0,547.427,0,547.427,0C547.427,0,547.427,397.087,547.427,397.087C547.427,397.087,413.406,397.087,413.406,397.087C413.406,397.087,413.406,551.015,413.406,551.015C413.406,551.015,547.427,551.015,547.427,551.015C547.427,551.015,547.427,664.951,547.427,664.951C547.427,797.195,628.124,868.827,746.148,868.827C802.672,868.827,851.197,864.917,865.417,863.139C865.417,863.139,865.417,724.852,865.417,724.852C865.417,724.852,783.653,724.852,783.653,724.852C719.486,724.852,707.577,694.457,707.577,649.665C707.577,649.665,707.577,551.015,707.577,551.015C707.577,551.015,860.084,551.015,860.084,551.015C860.084,551.015,840.176,397.087,840.176,397.087C840.176,397.087,707.577,397.087,707.577,397.087C707.577,397.087,707.577,0.178,707.577,0.178C707.577,0.178,967.976,0.178,967.976,0.178C999.26,0.178,1024.5,25.418,1024.5,56.701C1024.5,56.701,1024.5,967.476,1024.5,967.476C1024.322,998.76,999.082,1024,967.799,1024C967.799,1024,967.799,1024,967.799,1024" class="icon-icn-facebook"/><glyph unicode="&#x0047;" d="M511.911,1024C229.116,1024,0,794.884,0,512.089C0,295.238,134.91,110.025,325.455,35.372C321.011,75.898,316.923,137.932,327.232,182.191C336.475,222.184,387.311,436.724,387.311,436.724C387.311,436.724,372.024,467.297,372.024,512.8C372.024,583.899,413.262,637.045,464.63,637.045C508.356,637.045,529.33,604.34,529.33,564.88C529.33,520.976,501.424,455.388,487.027,394.42C474.94,343.407,512.622,301.814,562.747,301.814C653.753,301.814,723.608,397.798,723.608,536.262C723.608,658.908,635.445,744.582,509.778,744.582C364.203,744.582,278.707,635.267,278.707,522.398C278.707,478.317,295.593,431.214,316.745,405.618C321.011,400.642,321.544,396.198,320.3,390.865C316.39,374.691,307.858,339.852,306.08,332.742C303.769,323.322,298.615,321.366,289.016,325.81C225.028,355.672,185.035,448.989,185.035,524.176C185.035,685.57,302.348,833.989,523.287,833.989C700.856,833.989,838.788,707.433,838.788,538.395C838.788,361.893,727.518,220.051,573.234,220.051C521.332,220.051,472.629,247.068,455.921,278.885C455.921,278.885,430.325,181.124,424.104,157.128C412.551,112.692,381.267,56.879,360.471,22.929C408.462,7.999,459.298,0,512.089,0C794.884,0,1024,229.116,1024,511.911C1024,794.706,794.706,1024,511.911,1024C511.911,1024,511.911,1024,511.911,1024" class="icon-icn-pinterest"/><glyph unicode="&#x0048;" d="M1024,828.949C1024,828.949,1024,828.949,1024,828.949C1024,828.949,1024,828.949,1024,828.949M708.834,927.186C592.736,927.186,498.676,833.414,498.676,717.748C498.676,701.327,500.549,685.339,504.15,670.07C329.57,678.713,174.724,762.257,71.013,888.871C53.008,857.902,42.781,821.891,42.781,783.576C42.781,710.834,79.944,646.735,136.264,609.284C101.838,610.436,69.429,619.799,41.052,635.5C41.052,634.635,41.052,633.771,41.052,632.907C41.052,531.357,113.506,446.804,209.582,427.502C192.009,422.749,173.427,420.156,154.27,420.156C140.73,420.156,127.622,421.452,114.802,423.901C141.594,340.644,219.089,280.146,311.132,278.418C239.255,222.241,148.652,188.823,50.127,188.823C33.13,188.823,16.421,189.831,0,191.704C92.764,132.214,203.244,97.5,321.936,97.5C708.402,97.5,919.713,416.699,919.713,693.405C919.713,702.48,919.569,711.554,919.137,720.485C960.189,750.014,995.768,786.889,1024,828.949C986.261,812.24,945.785,801.005,903.292,795.963C946.649,821.891,979.923,862.943,995.624,911.774C955.004,887.719,910.062,870.289,862.24,860.927C823.925,901.691,769.332,927.186,708.834,927.186" class="icon-icn-twitter"/><glyph unicode="&#x0061;" d="M272.389,0C272.389,0,215.5,56.889,215.5,56.889C215.5,56.889,695.144,512,695.144,512C695.144,512,215.5,967.111,215.5,967.111C215.5,967.111,272.389,1024,272.389,1024C272.389,1024,808.922,520.178,808.922,520.178C808.922,520.178,272.389,0,272.389,0M272.389,0C272.389,0,215.5,56.889,215.5,56.889C215.5,56.889,695.144,512,695.144,512C695.144,512,215.5,967.111,215.5,967.111C215.5,967.111,272.389,1024,272.389,1024C272.389,1024,808.922,520.178,808.922,520.178C808.922,520.178,272.389,0,272.389,0" class="icon-Icon_btn_arrow"/><glyph unicode="&#x0063;" d="M1018.833,918.044C1018.833,918.044,914.122,1024,914.122,1024C914.122,1024,512.167,617.956,512.167,617.956C512.167,617.956,110.389,1024,110.389,1024C110.389,1024,5.5,918.044,5.5,918.044C5.5,918.044,407.278,512,407.278,512C407.278,512,5.5,105.956,5.5,105.956C5.5,105.956,110.389,0,110.389,0C110.389,0,512.167,406.044,512.167,406.044C512.167,406.044,914.122,0,914.122,0C914.122,0,1018.833,105.956,1018.833,105.956C1018.833,105.956,617.056,512,617.056,512C617.056,512,1018.833,918.044,1018.833,918.044" class="icon-icn-close"/><glyph unicode="&#x0065;" d="M760.868,510.473C760.868,510.473,1024,723.089,1024,723.089C1024,723.089,1024,271.411,1024,271.411C938.419,349.266,844.815,434.253,760.868,510.473C760.868,510.473,760.868,510.473,760.868,510.473M0,831.253C0,831.253,0,898.113,0,898.113C0,921.589,19.018,940.458,42.345,940.458C42.345,940.458,981.655,940.458,981.655,940.458C1004.982,940.458,1024,921.589,1024,898.262C1024,898.262,1024,833.482,1024,833.482C1024,833.482,504.72,404.091,504.72,404.091C504.72,404.091,0,831.253,0,831.253C0,831.253,0,831.253,0,831.253M0,263.834C0,263.834,0,730.072,0,730.072C0,730.072,259.269,510.622,259.269,510.622C176.511,431.727,83.947,343.62,0,263.834C0,263.834,0,263.834,0,263.834M499.074,307.516C499.074,307.516,502.491,301.721,502.491,301.721C502.491,301.721,504.274,303.207,504.274,303.207C504.274,303.207,505.908,301.721,505.908,301.721C505.908,301.721,509.028,306.921,509.028,306.921C509.028,306.921,697.574,459.214,697.574,459.214C800.984,363.084,921.927,250.61,1024,155.669C1024,155.669,1024,126.696,1024,126.696C1024,103.369,1005.131,84.5,981.655,84.5C981.655,84.5,42.345,84.5,42.345,84.5C19.018,84.5,0.149,103.518,0.149,126.845C0.149,126.845,0.149,158.195,0.149,158.195C99.844,253.136,217.518,365.164,318.106,460.848C318.106,460.848,499.074,307.516,499.074,307.516C499.074,307.516,499.074,307.516,499.074,307.516" class="icon-icn-email"/><glyph unicode="&#x0067;" d="M857.447,169.541C830.789,209.883,827.235,263.908,852.471,309.226C877.707,354.366,924.979,378.358,972.074,374.625C972.074,374.625,1005.84,372.137,1005.84,372.137C1017.747,416.744,1024.145,463.661,1024.145,512.178C1024.145,560.694,1017.747,607.611,1005.84,652.218C1005.84,652.218,972.074,649.73,972.074,649.73C924.979,645.998,877.707,669.99,852.471,715.129C827.235,760.269,830.967,814.473,857.447,854.814C857.447,854.814,876.463,883.96,876.463,883.96C812.662,950.426,732.157,999.653,641.877,1024C641.877,1024,626.949,992.367,626.949,992.367C606.512,948.471,562.971,918.081,512.5,918.081C462.029,918.081,418.488,948.471,398.051,992.367C398.051,992.367,382.767,1024,382.767,1024C292.488,999.653,211.982,950.426,148.36,883.782C148.36,883.782,167.198,854.637,167.198,854.637C193.855,814.295,197.409,760.269,172.174,714.952C146.938,669.812,99.666,645.82,52.571,649.552C52.571,649.552,18.805,652.04,18.805,652.04C6.898,607.434,0.5,560.516,0.5,512C0.5,463.484,6.898,416.566,18.805,372.137C18.805,372.137,52.571,374.448,52.571,374.448C99.666,378.18,146.938,354.188,172.174,309.048C197.409,263.908,193.677,209.705,167.198,169.363C167.198,169.363,148.36,140.218,148.36,140.218C211.982,73.574,292.488,24.525,382.767,0C382.767,0,397.695,31.633,397.695,31.633C418.133,75.529,461.673,105.919,512.145,105.919C562.616,105.919,606.156,75.529,626.594,31.456C626.594,31.456,641.522,0,641.522,0C731.802,24.347,812.485,73.574,876.107,140.218C876.107,140.218,857.447,169.541,857.447,169.541C857.447,169.541,857.447,169.541,857.447,169.541M512.322,309.226C403.915,309.226,315.946,400.039,315.946,512.178C315.946,624.317,403.915,715.129,512.322,715.129C620.907,715.129,708.699,624.317,708.699,512.178C708.699,400.039,620.907,309.226,512.322,309.226C512.322,309.226,512.322,309.226,512.322,309.226" class="icon-icn-cog"/><glyph unicode="&#x0068;" d="M512,1022.251C229.267,1022.251,0,794.046,0,512.376C0,230.705,229.267,2.5,512,2.5C794.733,2.5,1024,230.705,1024,512.376C1024,794.046,794.733,1022.251,512,1022.251C512,1022.251,512,1022.251,512,1022.251M671.513,505.294C671.513,505.294,538.202,505.294,538.202,505.294C538.202,505.294,538.202,371.452,538.202,371.452C538.202,371.452,485.975,371.452,485.975,371.452C485.975,371.452,485.975,505.294,485.975,505.294C485.975,505.294,352.664,505.294,352.664,505.294C352.664,505.294,352.664,556.636,352.664,556.636C352.664,556.636,485.975,556.636,485.975,556.636C485.975,556.636,485.975,690.832,485.975,690.832C485.975,690.832,538.202,690.832,538.202,690.832C538.202,690.832,538.202,556.636,538.202,556.636C538.202,556.636,671.513,556.636,671.513,556.636C671.513,556.636,671.513,505.294,671.513,505.294C671.513,505.294,671.513,505.294,671.513,505.294" class="icon-icn-hotspot"/><glyph unicode="&#x006D;" d="M0,102.5C0,102.5,0,239.033,0,239.033C0,239.033,1024,239.033,1024,239.033C1024,239.033,1024,102.5,1024,102.5C1024,102.5,0,102.5,0,102.5C0,102.5,0,102.5,0,102.5M0,580.367C0,580.367,1024,580.367,1024,580.367C1024,580.367,1024,443.833,1024,443.833C1024,443.833,0,443.833,0,443.833C0,443.833,0,580.367,0,580.367C0,580.367,0,580.367,0,580.367M0,921.7C0,921.7,1024,921.7,1024,921.7C1024,921.7,1024,785.167,1024,785.167C1024,785.167,0,785.167,0,785.167C0,785.167,0,921.7,0,921.7C0,921.7,0,921.7,0,921.7" class="icon-icn-menu"/><glyph unicode="&#x006F;" d="M512.5,2.5C229.767,2.5,0.5,230.705,0.5,512.376C0.5,794.046,229.767,1022.251,512.5,1022.251C795.233,1022.251,1024.5,794.046,1024.5,512.376C1024.5,230.705,795.233,2.5,512.5,2.5C512.5,2.5,512.5,2.5,512.5,2.5M388.218,691.717C388.218,691.717,388.218,324.89,388.218,324.89C388.218,324.89,706.359,508.304,706.359,508.304C706.359,508.304,388.218,691.717,388.218,691.717C388.218,691.717,388.218,691.717,388.218,691.717" class="icon-icn-play-circle"/><glyph unicode="&#x0070;" d="M951.367,512C951.367,512,73.5,0,73.5,0C73.5,0,73.5,1024,73.5,1024C73.5,1024,951.367,512,951.367,512C951.367,512,951.367,512,951.367,512" class="icon-icn-play"/><glyph unicode="&#x0072;" d="M0.5,630.301C0.5,630.301,384.479,638.841,384.479,638.841C384.479,638.841,513.781,1004.031,513.781,1004.031C513.781,1004.031,640.521,638.158,640.521,638.158C640.521,638.158,1024.5,626.884,1024.5,626.884C1024.5,626.884,718.923,392.022,718.923,392.022C718.923,392.022,826.874,20,826.874,20C826.874,20,511.219,241.027,511.219,241.027C511.219,241.027,194.027,22.391,194.027,22.391C194.027,22.391,304.711,393.559,304.711,393.559C304.711,393.559,0.5,630.301,0.5,630.301C0.5,630.301,0.5,630.301,0.5,630.301" class="icon-icn-star"/><glyph unicode="&#x0073;" d="M400.622,1024C400.622,1024,400.622,0,400.622,0C400.622,0,108,0,108,0C108,0,108,1024,108,1024C108,1024,400.622,1024,400.622,1024C400.622,1024,400.622,1024,400.622,1024M916.178,1024C916.178,1024,916.178,0,916.178,0C916.178,0,623.556,0,623.556,0C623.556,0,623.556,1024,623.556,1024C623.556,1024,916.178,1024,916.178,1024C916.178,1024,916.178,1024,916.178,1024" class="icon-icn-pause"/><glyph unicode="&#x0031;" d="M767.65,888.903C767.65,888.903,252.644,888.903,252.644,888.903C110.821,888.903,0.5,770.085,0.5,623.426C0.5,623.426,0.5,401.607,0.5,401.607C0.5,254.817,110.821,136,252.644,136C252.644,136,767.65,136,767.65,136C909.473,136,1024.5,254.817,1024.5,401.477C1024.5,401.477,1024.5,623.426,1024.5,623.426C1024.631,770.085,909.604,888.903,767.65,888.903C767.65,888.903,767.65,888.903,767.65,888.903M490.802,437.422C482.044,380.955,459.3,334.291,423.223,298.606C386.624,262.399,339.437,244.099,282.838,244.099C213.169,244.099,157.485,268.673,117.226,317.298C77.62,365.269,57.621,431.41,57.621,514.02C57.621,603.166,80.365,673.358,125.33,722.375C165.067,765.772,216.306,787.731,277.479,787.731C358.913,787.731,419.564,758.19,457.862,699.893C478.645,667.476,490.017,634.275,491.717,601.336C491.717,601.336,492.501,586.827,492.501,586.827C492.501,586.827,477.992,586.827,477.992,586.827C477.992,586.827,381.657,586.827,381.657,586.827C381.657,586.827,370.939,586.827,370.939,586.827C370.939,586.827,368.324,597.153,368.324,597.153C362.704,618.851,355.645,635.321,347.28,645.778C332.64,664.078,311.072,672.835,281.401,672.835C251.86,672.835,228.985,660.025,211.731,633.622C193.431,605.78,184.151,564.998,184.151,512.582C184.151,460.428,193.693,421.345,212.646,396.379C230.946,372.197,253.428,360.433,281.27,360.433C310.027,360.433,331.071,370.236,345.973,390.497C354.338,401.738,361.527,419.253,367.409,442.912C367.409,442.912,370.024,453.369,370.024,453.369C370.024,453.369,380.742,453.369,380.742,453.369C380.742,453.369,477.077,453.369,477.077,453.369C477.077,453.369,493.155,453.369,493.155,453.369C493.155,453.369,490.802,437.422,490.802,437.422C490.802,437.422,490.802,437.422,490.802,437.422M954.961,437.422C946.203,380.955,923.459,334.291,887.383,298.606C850.783,262.399,803.596,244.099,746.998,244.099C677.328,244.099,621.645,268.673,581.385,317.298C541.779,365.269,521.781,431.41,521.781,514.02C521.781,603.166,544.524,673.358,589.489,722.375C629.226,765.772,680.465,787.731,741.639,787.731C823.072,787.731,883.723,758.19,922.021,699.893C942.805,667.476,954.177,634.275,955.876,601.336C955.876,601.336,956.66,586.827,956.66,586.827C956.66,586.827,942.151,586.827,942.151,586.827C942.151,586.827,845.816,586.827,845.816,586.827C845.816,586.827,835.098,586.827,835.098,586.827C835.098,586.827,832.484,597.153,832.484,597.153C826.863,618.851,819.804,635.321,811.439,645.778C796.799,664.078,775.232,672.835,745.56,672.835C716.019,672.835,693.144,660.025,675.89,633.622C657.591,605.78,648.31,564.998,648.31,512.582C648.31,460.428,657.983,421.345,676.805,396.379C695.105,372.197,717.587,360.433,745.429,360.433C774.055,360.433,795.231,370.236,810.132,390.497C818.497,401.738,825.687,419.253,831.569,442.912C831.569,442.912,834.183,453.369,834.183,453.369C834.183,453.369,844.901,453.369,844.901,453.369C844.901,453.369,941.236,453.369,941.236,453.369C941.236,453.369,957.314,453.369,957.314,453.369C957.314,453.369,954.961,437.422,954.961,437.422C954.961,437.422,954.961,437.422,954.961,437.422" class="icon-icn-cc"/><glyph unicode="&#x0032;" d="M285.677,837.237C285.677,837.237,121.191,1000.836,121.191,1000.836C121.191,1000.836,8.517,888.872,8.517,888.872C8.517,888.872,173.358,724.918,173.358,724.918C173.358,724.918,0,551.206,0,551.206C0,551.206,415.739,551.206,415.739,551.206C446.614,551.206,471.81,576.402,471.81,607.276C471.81,607.276,471.81,1023.371,471.81,1023.371C471.81,1023.371,285.677,837.237,285.677,837.237C285.677,837.237,285.677,837.237,285.677,837.237M608.261,473.665C577.386,473.665,552.19,448.469,552.19,417.594C552.19,417.594,552.19,1.5,552.19,1.5C552.19,1.5,733,182.665,733,182.665C733,182.665,895.179,21.196,895.179,21.196C895.179,21.196,1007.853,133.16,1007.853,133.16C1007.853,133.16,845.319,294.807,845.319,294.807C845.319,294.807,1024,473.665,1024,473.665C1024,473.665,608.261,473.665,608.261,473.665C608.261,473.665,608.261,473.665,608.261,473.665" class="icon-icn-close-fullscreen"/><glyph unicode="&#x0033;" d="M840.151,734.014C840.151,734.014,677.394,571.256,677.394,571.256C677.394,571.256,565.959,682.691,565.959,682.691C565.959,682.691,728.893,845.624,728.893,845.624C728.893,845.624,557.523,1018.4,557.523,1018.4C557.523,1018.4,968.634,1018.4,968.634,1018.4C999.217,1018.4,1024,993.441,1024,962.507C1024,962.507,1024,548.759,1024,548.759C1024,548.759,840.151,734.014,840.151,734.014C840.151,734.014,840.151,734.014,840.151,734.014M55.366,6C24.783,6,0,30.958,0,61.893C0,61.893,0,475.465,0,475.465C0,475.465,178.928,295.307,178.928,295.307C178.928,295.307,339.576,455.955,339.576,455.955C339.576,455.955,450.834,344.697,450.834,344.697C450.834,344.697,289.835,183.697,289.835,183.697C289.835,183.697,466.477,6,466.477,6C466.477,6,55.366,6,55.366,6C55.366,6,55.366,6,55.366,6" class="icon-icn-fullscreen"/><glyph unicode="&#x0034;" d="M0,687.522C0,687.522,0,337.3,0,337.3C0,337.3,255.822,337.3,255.822,337.3C255.822,337.3,532.267,140.5,532.267,140.5C532.267,140.5,532.267,884.322,532.267,884.322C532.267,884.322,255.822,687.522,255.822,687.522C255.822,687.522,0,687.522,0,687.522M864.889,498.367C864.889,498.367,1022.222,656.411,1022.222,656.411C1022.222,656.411,1000.533,678.1,1000.533,678.1C1000.533,678.1,843.378,520.056,843.378,520.056C843.378,520.056,686.044,678.1,686.044,678.1C686.044,678.1,664.533,656.411,664.533,656.411C664.533,656.411,821.689,498.367,821.689,498.367C821.689,498.367,662.756,338.367,662.756,338.367C662.756,338.367,684.267,316.678,684.267,316.678C684.267,316.678,843.378,476.5,843.378,476.5C843.378,476.5,1002.311,316.678,1002.311,316.678C1002.311,316.678,1024,338.544,1024,338.544C1024,338.544,864.889,498.367,864.889,498.367" class="icon-icn-mute"/><glyph unicode="&#x0035;" d="M878.444,0C878.444,0,498.178,271.111,498.178,271.111C498.178,271.111,146,271.111,146,271.111C146,271.111,146,752.889,146,752.889C146,752.889,498.178,752.889,498.178,752.889C498.178,752.889,878.444,1024,878.444,1024C878.444,1024,878.444,0,878.444,0C878.444,0,878.444,0,878.444,0" class="icon-icn-volume"/><glyph unicode="&#x0036;" d="M865.589,158.4C865.589,158.4,865.589,907.022,865.589,907.022C865.589,907.022,947.189,907.022,947.189,907.022C947.189,907.022,947.189,158.222,947.189,158.222C947.189,158.222,865.589,158.4,865.589,158.4C865.589,158.4,865.589,158.4,865.589,158.4C865.589,158.4,865.589,158.4,865.589,158.4M77.5,271.111C77.5,271.111,77.5,752.889,77.5,752.889C77.5,752.889,429.678,752.889,429.678,752.889C429.678,752.889,809.944,1024,809.944,1024C809.944,1024,809.944,0,809.944,0C809.944,0,429.678,271.111,429.678,271.111C429.678,271.111,77.5,271.111,77.5,271.111C77.5,271.111,77.5,271.111,77.5,271.111" class="icon-icn-volume_low"/><glyph unicode="&#x0037;" d="M786.667,886.267C786.667,886.267,786.667,177.822,786.667,177.822C786.667,177.822,866.667,177.822,866.667,177.822C866.667,177.822,866.667,886.267,866.667,886.267C866.667,886.267,786.667,886.267,786.667,886.267M0,741.022C0,741.022,0,283.422,0,283.422C0,283.422,334.4,283.422,334.4,283.422C334.4,283.422,695.467,26,695.467,26C695.467,26,695.467,998.444,695.467,998.444C695.467,998.444,334.4,741.022,334.4,741.022C334.4,741.022,0,741.022,0,741.022M944,963.6C944,963.6,944,100.133,944,100.133C944,100.133,944,100.133,944,100.133C944,100.133,1024,100.133,1024,100.133C1024,100.133,1024,963.6,1024,963.6C1024,963.6,944,963.6,944,963.6" class="icon-icn-volume-high"/></font>
</defs>
</svg>
